Coordinates
nRows=242
nColumns=2
inDegrees=yes
endheader
time	ankle_angle_r	
2.59476	 -5.119060	
2.62802	 -5.129505	
2.66129	 -5.099084	
2.69456	 -5.246278	
2.72782	 -5.200405	
2.76109	 -5.136334	
2.79435	 -5.209318	
2.82762	 -5.126953	
2.86089	 -5.035400	
2.89415	 -5.203247	
2.92742	 -5.160893	
2.96069	 -5.142212	
2.99395	 -5.142212	
3.02722	 -5.149636	
3.06048	 -5.084986	
3.09375	 -5.153565	
3.12702	 -5.161473	
3.16028	 -5.135151	
3.19355	 -5.109022	
3.22681	 -5.146504	
3.26008	 -5.198858	
3.29335	 -5.183503	
3.32661	 -5.187988	
3.35988	 -5.173951	
3.39315	 -5.146987	
3.42641	 -5.187988	
3.45968	 -5.162791	
3.49294	 -5.188050	
3.52621	 -5.122019	
3.55948	 -5.136953	
3.59274	 -5.142212	
3.62601	 -5.162923	
3.65927	 -5.264282	
3.69254	 -5.218506	
3.72581	 -5.086919	
3.75907	 -5.136373	
3.79234	 -5.126953	
3.8256	 -5.105662	
3.85887	 -5.126953	
3.89214	 -5.133179	
3.9254	 -5.081177	
3.95867	 -5.065918	
3.99194	 -5.065918	
4.0252	 -5.026754	
4.05847	 -5.050659	
4.09173	 -5.065918	
4.125	 -5.027044	
4.15827	 -5.140952	
4.19153	 -5.128020	
4.2248	 -5.073984	
4.25806	 -5.088466	
4.29133	 -5.104308	
4.3246	 -5.050659	
4.35786	 -5.081177	
4.39113	 -5.073594	
4.4244	 -5.027627	
4.45766	 -5.066399	
4.49093	 -5.096436	
4.52419	 -5.035400	
4.55746	 -5.141151	
4.59073	 -5.112948	
4.62399	 -5.072824	
4.65726	 -5.149021	
4.69052	 -5.152593	
4.72379	 -5.142212	
4.75706	 -5.144433	
4.79032	 -5.122945	
4.82359	 -5.221114	
4.85685	 -5.212277	
4.89012	 -5.160465	
4.92339	 -5.157471	
4.95665	 -5.182049	
4.98992	 -5.142212	
5.02319	 -5.254769	
5.05645	 -5.285190	
5.08972	 -5.224058	
5.12298	 -5.243568	
5.15625	 -5.274182	
5.18952	 -5.243762	
5.22278	 -5.233765	
5.25605	 -5.264282	
5.28931	 -5.253995	
5.32258	 -5.228889	
5.35585	 -5.203247	
5.38911	 -5.126953	
5.42238	 -5.122368	
5.45565	 -5.120671	
5.48891	 -5.000491	
5.52218	 -5.013473	
5.55544	 -5.070117	
5.58871	 -5.074121	
5.62198	 -5.054664	
5.65524	 -5.069451	
5.68851	 -5.073553	
5.72177	 -5.012313	
5.75504	 -5.134975	
5.78831	 -5.042444	
5.82157	 -5.054084	
5.85484	 -5.160799	
5.8881	 -5.023373	
5.92137	 -5.126953	
5.95464	 -5.071994	
5.9879	 -5.038342	
6.02117	 -5.078332	
6.05444	 -5.050659	
6.0877	 -5.063266	
6.12097	 -5.065918	
6.15423	 -5.055575	
6.1875	 -5.022503	
6.22077	 -5.063653	
6.25403	 -5.065918	
6.2873	 -5.033329	
6.32056	 -5.079202	
6.35383	 -5.064040	
6.3871	 -5.037182	
6.42036	 -5.065918	
6.45363	 -5.113282	
6.4869	 -5.035400	
6.52016	 -5.096436	
6.55343	 -5.082475	
6.58669	 -5.035400	
6.61996	 -5.081177	
6.65323	 -5.108671	
6.68649	 -5.094613	
6.71976	 -5.111694	
6.75302	 -5.095718	
6.78629	 -5.111694	
6.81956	 -5.095911	
6.85282	 -5.141356	
6.88609	 -5.158133	
6.91935	 -5.172729	
6.95262	 -5.188126	
6.98589	 -5.172771	
7.01915	 -5.157471	
7.05242	 -5.035858	
7.08569	 -5.157720	
7.11895	 -5.203593	
7.15222	 -5.127396	
7.18548	 -5.111694	
7.21875	 -5.188624	
7.25202	 -5.186523	
7.28528	 -5.156641	
7.31855	 -5.187062	
7.35181	 -5.158493	
7.38508	 -5.157471	
7.41835	 -5.219722	
7.45161	 -5.157471	
7.48488	 -5.172729	
7.51815	 -5.126953	
7.55141	 -5.061110	
7.58468	 -5.037100	
7.61794	 -5.050659	
7.65121	 -5.084962	
7.68448	 -5.126953	
7.71774	 -5.037487	
7.75101	 -5.020142	
7.78427	 -4.974365	
7.81754	 -5.033024	
7.85081	 -5.009829	
7.88407	 -5.030262	
7.91734	 -5.096436	
7.9506	 -5.047896	
7.98387	 -5.032541	
8.01714	 -5.026054	
8.0504	 -5.068971	
8.08367	 -5.078027	
8.11694	 -5.053905	
8.1502	 -5.040630	
8.18347	 -5.092996	
8.21673	 -5.126953	
8.25	 -5.089170	
8.28327	 -5.111694	
8.31653	 -5.210853	
8.3498	 -5.039323	
8.38306	 -5.092416	
8.41633	 -5.085293	
8.4496	 -5.253237	
8.48286	 -5.198937	
8.51613	 -5.172729	
8.5494	 -5.218506	
8.58266	 -5.183388	
8.61593	 -5.213809	
8.64919	 -5.126953	
8.68246	 -5.202658	
8.71573	 -5.239050	
8.74899	 -5.116778	
8.78226	 -5.142212	
8.81552	 -5.264282	
8.84879	 -5.107183	
8.88206	 -5.239235	
8.91532	 -5.208814	
8.94859	 -5.245091	
8.98185	 -5.166969	
9.01512	 -5.142212	
9.04839	 -5.160822	
9.08165	 -5.191147	
9.11492	 -5.087324	
9.14819	 -5.020142	
9.18145	 -5.124375	
9.21472	 -5.048274	
9.24798	 -5.011416	
9.28125	 -5.035400	
9.31452	 -5.001273	
9.34778	 -5.028577	
9.38105	 -5.065918	
9.41431	 -5.020142	
9.44758	 -5.004883	
9.48085	 -5.058708	
9.51411	 -5.027449	
9.54738	 -5.012287	
9.58065	 -5.035400	
9.61391	 -5.012480	
9.64718	 -5.020142	
9.68044	 -5.027610	
9.71371	 -4.989624	
9.74698	 -4.998317	
9.78024	 -5.028222	
9.81351	 -4.974365	
9.84677	 -4.981350	
9.88004	 -5.018659	
9.91331	 -5.057451	
9.94657	 -5.013447	
9.97984	 -5.065918	
10.0131	 -5.105193	
10.0464	 -5.072323	
10.0796	 -5.142212	
10.1129	 -5.059707	
10.1462	 -5.191073	
10.1794	 -5.132971	
10.2127	 -5.108278	
10.246	 -5.117519	
10.2792	 -5.270010	
10.3125	 -5.121322	
10.3458	 -5.122764	
10.379	 -5.187988	
10.4123	 -5.147553	
10.4456	 -5.162715	
10.4788	 -5.203247	
10.5121	 -5.152420	
10.5454	 -5.249023	
10.5786	 -5.193532	
10.6119	 -5.146973	
